<?xml version="1.0" standalone="no"?>
<!DOCTYPE svg PUBLIC "-//W3C//DTD SVG 20010904//EN"
 "http://www.w3.org/TR/2001/REC-SVG-20010904/DTD/svg10.dtd">
<svg version="1.0" xmlns="http://www.w3.org/2000/svg"
 width="1628.000000pt" height="532.000000pt" viewBox="0 0 1628.000000 532.000000"
 preserveAspectRatio="xMidYMid meet">

<g transform="translate(0.000000,532.000000) scale(0.100000,-0.100000)"
fill="#000000" stroke="none">
<path d="M2574 5115 c-262 -58 -512 -271 -621 -529 -60 -142 -84 -246 -90
-392 -6 -147 6 -227 58 -387 100 -308 251 -503 694 -895 121 -107 265 -241
320 -296 416 -420 624 -829 625 -1230 l1 -101 25 40 c89 141 186 388 226 571
33 157 33 432 0 582 -63 281 -191 539 -396 796 -111 140 -207 238 -471 480
-278 254 -434 409 -499 495 -116 151 -159 287 -138 433 30 206 175 355 407
419 44 12 82 23 84 25 11 10 -171 1 -225 -11z"/>
<path d="M1753 4647 c-268 -278 -396 -594 -397 -977 0 -250 52 -473 162 -695
105 -213 198 -331 512 -650 276 -280 310 -320 363 -433 29 -61 32 -75 32 -167
0 -92 -3 -106 -32 -168 -133 -279 -486 -341 -692 -121 -73 77 -102 147 -108
259 -5 77 -2 91 76 359 45 154 81 283 81 288 0 4 -201 8 -448 8 l-447 0 -98
-347 c-53 -192 -104 -395 -113 -453 -27 -181 -10 -395 48 -570 132 -402 483
-742 913 -883 129 -43 221 -59 370 -64 167 -7 306 8 460 47 478 121 824 486
942 993 35 147 39 395 9 522 -94 403 -331 727 -881 1205 -309 270 -448 416
-567 600 -101 155 -164 308 -208 506 -54 240 -17 531 101 779 15 32 27 61 25
62 -2 2 -48 -43 -103 -100z"/>
<path d="M9350 4060 l0 -60 104 0 c57 0 111 -3 120 -6 11 -4 16 -19 16 -45 l0
-39 65 0 65 0 0 48 c-1 62 -30 127 -69 146 -23 12 -62 16 -166 16 l-135 0 0
-60z"/>
<path d="M4830 3713 c0 -237 -6 -285 -43 -335 -54 -73 -173 -88 -245 -31 -55
44 -72 85 -72 176 l0 77 -66 0 -67 0 6 -90 c9 -148 60 -235 169 -289 109 -55
242 -39 332 40 25 22 57 65 73 97 l28 57 3 263 3 262 -60 0 -61 0 0 -227z"/>
<path d="M6770 3565 l0 -375 228 0 c207 0 231 2 272 21 24 11 53 27 62 36 16
15 21 14 55 -10 54 -37 87 -47 151 -47 62 0 125 24 156 58 l19 22 30 -26 c68
-57 173 -71 257 -33 60 27 88 54 116 114 20 42 24 66 24 148 l0 97 -59 0 -59
0 -4 -95 c-3 -90 -4 -96 -34 -126 -39 -39 -99 -49 -142 -24 -45 27 -62 64 -62
139 l0 66 -65 0 -65 0 0 -73 c0 -80 -12 -107 -60 -132 -88 -46 -180 23 -180
135 l0 40 -59 0 -59 0 -4 -60 c-4 -52 -9 -66 -36 -93 l-32 -32 -165 -3 -165
-3 0 315 0 316 -60 0 -60 0 0 -375z"/>
<path d="M8340 3565 l0 -375 285 0 c312 0 322 1 388 59 59 53 78 104 84 236
l6 115 -67 0 -66 0 0 -101 c0 -111 -11 -144 -60 -173 -24 -13 -62 -16 -239
-16 l-211 0 0 315 0 315 -60 0 -60 0 0 -375z"/>
<path d="M9430 3580 l0 -360 60 0 60 0 0 360 0 360 -60 0 -60 0 0 -360z"/>
<path d="M11390 3625 l0 -315 -125 0 -125 0 0 95 0 95 -60 0 -60 0 0 -95 0
-95 -146 0 c-135 0 -146 1 -139 18 16 36 17 137 3 172 -65 155 -260 196 -376
80 -50 -50 -72 -112 -72 -202 l0 -68 -100 0 -100 0 0 145 0 145 -64 0 -65 0
-3 -227 c-3 -222 -4 -229 -29 -284 -26 -56 -95 -134 -153 -174 l-29 -21 27
-47 c15 -26 34 -47 41 -47 24 0 125 84 166 140 47 62 65 100 89 185 l17 60
874 5 c969 6 898 0 965 72 58 61 68 92 72 221 l4 117 -61 0 -61 0 -1 -87 c0
-109 -14 -150 -58 -180 -31 -21 -45 -23 -167 -23 l-134 0 0 315 0 315 -65 0
-65 0 0 -315z m-797 -131 c15 -14 29 -35 33 -46 11 -36 -5 -86 -37 -112 -27
-23 -40 -26 -105 -26 l-74 0 0 48 c0 108 38 162 115 162 32 0 48 -6 68 -26z"/>
<path d="M13541 3781 c-119 -126 -121 -129 -121 -175 l0 -46 144 0 c79 0 164
-3 190 -6 103 -15 200 -107 213 -203 l6 -41 -347 0 -346 0 0 145 0 145 -60 0
-60 0 0 -145 0 -145 -308 0 c-358 0 -376 3 -452 80 -49 48 -80 117 -80 177 l0
33 -61 0 -62 0 5 -68 c9 -129 93 -247 218 -306 l65 -31 809 -3 809 -2 -5 97
c-4 66 -13 117 -27 155 -31 79 -105 159 -187 199 -56 28 -78 33 -165 37 l-101
5 49 51 c96 100 92 91 48 136 -22 22 -42 40 -46 40 -4 0 -61 -58 -128 -129z"/>
<path d="M14895 3860 l-39 -40 39 -40 39 -40 41 40 40 40 -40 40 -41 40 -39
-40z"/>
<path d="M14975 3730 l-39 -40 39 -40 39 -40 41 40 40 40 -40 40 -41 40 -39
-40z"/>
<path d="M14807 3722 l-37 -38 40 -39 40 -39 40 39 40 39 -37 38 c-20 21 -40
38 -43 38 -3 0 -23 -17 -43 -38z"/>
<path d="M12635 3650 l-39 -40 39 -40 39 -40 41 40 40 40 -40 40 -41 40 -39
-40z"/>
<path d="M12795 3650 l-39 -40 39 -40 39 -40 41 40 40 40 -40 40 -41 40 -39
-40z"/>
<path d="M5220 3641 c-108 -33 -170 -115 -170 -226 0 -91 55 -177 135 -210 11
-5 58 -11 105 -14 83 -6 85 -6 82 -31 -7 -73 -83 -178 -176 -245 l-28 -20 27
-47 c15 -27 32 -48 39 -48 7 0 37 17 67 39 91 65 151 154 185 271 l22 75 123
5 c125 5 164 16 211 58 16 13 21 12 55 -11 54 -37 87 -47 151 -47 62 0 125 24
156 58 l19 22 30 -26 c68 -57 173 -71 257 -33 60 27 88 54 116 114 20 42 24
66 24 148 l0 97 -59 0 -59 0 -4 -95 c-3 -90 -4 -96 -34 -126 -39 -39 -99 -49
-142 -24 -45 27 -62 64 -62 139 l0 66 -65 0 -65 0 0 -73 c0 -80 -12 -107 -60
-132 -88 -46 -180 23 -180 135 l0 40 -59 0 -59 0 -4 -60 c-4 -52 -9 -66 -36
-93 -32 -32 -34 -32 -142 -35 l-110 -4 0 64 c0 93 -22 158 -71 207 -58 58
-148 83 -219 62z m131 -150 c27 -27 29 -35 29 -105 l0 -76 -71 0 c-67 0 -73 2
-105 34 -70 70 -26 175 74 176 35 0 49 -6 73 -29z"/>
<path d="M9198 3383 c-5 -266 -14 -300 -112 -398 -34 -34 -71 -68 -83 -76
l-22 -14 30 -52 30 -52 37 22 c58 33 154 137 184 199 50 102 58 154 58 380 l0
208 -59 0 -59 0 -4 -217z"/>
<path d="M14208 3378 c-3 -220 -3 -224 -31 -282 -35 -75 -83 -134 -136 -166
-22 -14 -41 -29 -41 -35 0 -5 13 -31 28 -57 l28 -48 50 34 c105 71 188 191
215 313 l12 53 169 0 c150 0 173 2 213 21 24 11 49 27 56 35 16 19 33 18 54
-6 55 -60 197 -67 284 -12 l51 31 51 -31 c40 -25 65 -33 114 -36 79 -5 122 9
178 58 59 53 78 103 85 223 l5 97 -67 0 -66 0 0 -85 c0 -57 -5 -96 -15 -115
-35 -68 -132 -78 -189 -21 -28 28 -31 38 -34 106 l-4 75 -59 0 -59 0 0 -55 c0
-95 -36 -151 -104 -162 -81 -13 -136 40 -136 131 l0 56 -65 0 -65 0 0 -51 c0
-58 -20 -99 -60 -123 -23 -13 -58 -16 -184 -16 l-156 0 0 145 0 145 -59 0 -60
0 -3 -222z"/>
<path d="M8595 3070 l-39 -40 39 -40 39 -40 41 40 40 40 -40 40 -41 40 -39
-40z"/>
<path d="M10905 3070 l-39 -40 39 -40 39 -40 41 40 40 40 -40 40 -41 40 -39
-40z"/>
<path d="M11703 3068 l-43 -42 -40 39 -40 39 -40 -40 -40 -40 40 -39 40 -39
40 39 40 39 40 -39 40 -39 43 42 42 42 -40 40 -40 40 -42 -42z"/>
<path d="M8757 3062 l-37 -38 40 -39 40 -39 40 39 40 39 -37 38 c-20 21 -40
38 -43 38 -3 0 -23 -17 -43 -38z"/>
<path d="M10737 3062 l-37 -38 40 -39 40 -39 40 39 40 39 -37 38 c-20 21 -40
38 -43 38 -3 0 -23 -17 -43 -38z"/>
<path d="M11617 2932 l-37 -38 40 -39 40 -39 40 39 40 39 -37 38 c-20 21 -40
38 -43 38 -3 0 -23 -17 -43 -38z"/>
<path d="M6505 2571 c-72 -18 -115 -63 -115 -120 0 -60 29 -94 115 -135 70
-33 76 -38 73 -64 -6 -50 -77 -62 -159 -28 -13 6 -19 -2 -26 -33 l-11 -40 37
-12 c50 -17 139 -15 183 4 68 29 97 111 62 178 -11 22 -36 40 -92 67 -66 32
-77 41 -80 64 -5 38 35 54 98 40 51 -12 55 -9 64 34 5 23 3 33 -8 37 -29 11
-111 16 -141 8z"/>
<path d="M7415 2573 c-78 -19 -115 -62 -115 -131 0 -53 30 -88 104 -122 93
-41 112 -80 52 -109 -24 -11 -37 -11 -87 1 l-59 15 -10 -36 c-5 -19 -6 -39 -2
-43 4 -4 32 -12 62 -18 140 -26 249 51 225 159 -8 38 -48 74 -115 104 -69 30
-85 48 -70 76 17 33 56 38 132 15 10 -3 18 2 21 13 3 10 8 28 12 40 5 19 0 22
-45 32 -53 11 -71 12 -105 4z"/>
<path d="M7846 2566 c-95 -36 -141 -108 -140 -221 1 -112 49 -184 141 -211
113 -33 224 22 259 128 22 68 15 161 -17 218 -44 78 -157 118 -243 86z m107
-77 c78 -35 88 -203 16 -263 -77 -65 -163 1 -162 125 1 112 67 174 146 138z"/>
<path d="M9405 2565 c-49 -17 -107 -80 -123 -133 -26 -86 -10 -181 40 -238 44
-50 83 -67 153 -67 109 0 181 58 205 168 41 185 -106 329 -275 270z m123 -81
c35 -24 52 -68 52 -134 0 -66 -17 -110 -52 -134 -70 -49 -158 26 -158 133 0
112 86 186 158 135z"/>
<path d="M12418 2567 c-105 -30 -163 -110 -162 -227 1 -114 58 -185 167 -210
48 -10 133 -5 156 10 8 5 10 19 6 42 l-7 35 -43 -8 c-105 -20 -177 38 -177
141 0 106 75 165 179 142 l41 -9 10 38 c8 30 7 39 -5 43 -34 14 -122 15 -165
3z"/>
<path d="M12826 2565 c-87 -31 -135 -109 -136 -219 0 -120 52 -193 156 -217
41 -10 60 -9 105 4 96 29 148 102 149 211 0 81 -18 134 -61 177 -54 54 -137
71 -213 44z m120 -80 c78 -54 67 -241 -15 -275 -41 -17 -87 -4 -114 32 -25 34
-34 130 -17 182 22 66 95 97 146 61z"/>
<path d="M4485 2558 c-13 -37 -125 -414 -125 -420 0 -5 22 -8 49 -8 l50 0 12
55 12 55 67 0 67 0 14 -52 14 -53 54 -3 c48 -3 53 -1 49 15 -3 10 -34 109 -68
221 l-63 202 -64 0 c-42 0 -65 -4 -68 -12z m88 -143 c8 -33 19 -68 22 -77 6
-16 1 -18 -42 -18 l-50 0 21 84 c12 47 24 82 27 78 3 -4 13 -34 22 -67z"/>
<path d="M4880 2350 l0 -220 45 0 45 0 0 85 0 85 33 0 c43 0 62 -21 78 -85 19
-79 24 -85 74 -85 25 0 45 3 45 7 0 30 -46 165 -61 179 -18 16 -18 18 17 57
33 36 36 44 31 84 -9 85 -60 113 -207 113 l-100 0 0 -220z m192 133 c22 -20
24 -66 3 -87 -18 -17 -78 -31 -94 -21 -12 7 -15 107 -4 118 13 13 77 7 95 -10z"/>
<path d="M5350 2437 l70 -134 0 -86 0 -87 45 0 45 0 0 89 0 89 65 115 c90 159
88 149 24 145 l-53 -3 -35 -87 c-20 -48 -39 -88 -42 -88 -3 0 -21 39 -40 88
l-35 87 -57 3 -58 3 71 -134z"/>
<path d="M5782 2463 c-18 -59 -47 -159 -66 -220 l-34 -113 49 0 c31 0 51 5 54
13 2 6 9 31 15 55 l11 43 66 -3 66 -3 15 -52 15 -53 52 0 53 0 -25 83 c-14 45
-44 143 -67 217 l-42 135 -65 3 -66 3 -31 -108z m134 -115 c5 -27 5 -28 -41
-28 -44 0 -47 1 -41 23 3 12 14 51 23 87 l17 65 18 -60 c9 -33 20 -72 24 -87z"/>
<path d="M6917 2563 c-6 -11 -127 -414 -127 -425 0 -4 22 -8 48 -8 l49 0 12
55 12 55 67 0 67 0 15 -52 15 -53 54 -3 c41 -2 52 0 49 10 -3 7 -33 106 -68
221 l-64 207 -62 0 c-35 0 -65 -3 -67 -7z m88 -162 l23 -81 -50 0 c-36 0 -48
4 -45 13 3 6 13 45 23 84 10 40 20 71 22 69 2 -3 14 -41 27 -85z"/>
<path d="M8250 2350 l0 -220 135 0 135 0 0 40 0 40 -85 0 -85 0 0 180 0 180
-50 0 -50 0 0 -220z"/>
<path d="M8850 2350 l0 -220 45 0 45 0 0 80 0 80 53 0 c123 0 200 103 152 204
-28 58 -74 76 -195 76 l-100 0 0 -220z m190 130 c46 -46 6 -120 -66 -120 l-34
0 0 70 0 70 40 0 c27 0 47 -7 60 -20z"/>
<path d="M9820 2350 l0 -220 135 0 135 0 0 40 0 40 -85 0 -85 0 0 180 0 180
-50 0 -50 0 0 -220z"/>
<path d="M10148 2518 c118 -215 112 -199 112 -298 l0 -90 50 0 50 0 0 96 0 96
70 124 69 125 -56 -3 -56 -3 -35 -87 c-20 -49 -38 -88 -41 -88 -3 0 -22 40
-41 88 l-35 87 -58 3 -58 3 29 -53z"/>
<path d="M10616 2513 c-3 -32 -8 -105 -11 -163 -3 -58 -8 -131 -11 -162 l-6
-58 46 0 c45 0 46 1 47 33 1 17 4 95 8 172 7 159 1 166 63 -73 l32 -123 40 3
40 3 48 159 c27 88 51 162 53 165 3 2 5 -49 5 -115 0 -65 3 -143 6 -171 l7
-53 45 0 45 0 -6 108 c-4 59 -10 158 -13 220 l-7 112 -63 0 -63 0 -29 -92
c-17 -51 -36 -119 -43 -151 -7 -31 -14 -55 -17 -52 -3 3 -15 44 -28 92 -12 49
-29 114 -39 146 l-16 57 -64 0 -63 0 -6 -57z"/>
<path d="M11220 2350 l0 -220 135 0 135 0 0 40 0 40 -90 0 -90 0 0 55 0 55 80
0 80 0 0 40 0 40 -80 0 -80 0 0 45 0 45 85 0 85 0 0 40 0 40 -130 0 -130 0 0
-220z"/>
<path d="M11630 2350 l0 -220 45 0 45 0 0 85 0 85 33 0 c45 0 62 -21 82 -102
l17 -68 50 0 c50 0 50 0 44 28 -20 81 -38 132 -56 155 l-21 26 33 30 c29 26
33 35 33 79 0 91 -51 122 -205 122 l-100 0 0 -220z m188 134 c28 -19 29 -64 2
-89 -11 -10 -36 -18 -57 -19 l-38 -1 -3 63 -3 62 38 0 c21 0 49 -7 61 -16z"/>
<path d="M13242 2378 c-17 -273 -20 -248 33 -248 l45 0 0 63 c0 35 3 113 7
172 l6 109 27 -110 c15 -60 35 -135 44 -166 16 -58 17 -58 55 -58 l38 0 47
153 c25 83 47 159 48 167 3 31 16 -158 17 -242 l1 -88 51 0 c50 0 51 0 45 28
-3 15 -8 101 -11 192 -9 234 -4 220 -79 220 l-62 0 -31 -107 c-18 -60 -37
-128 -44 -153 l-12 -45 -33 125 c-19 69 -37 137 -40 153 -6 26 -9 27 -74 27
l-67 0 -11 -192z"/>
<path d="M13857 2563 c-4 -3 -7 -102 -7 -220 l0 -213 50 0 50 0 0 80 0 80 45
0 c96 0 156 49 162 132 5 65 -21 112 -72 134 -35 14 -215 20 -228 7z m173 -73
c70 -37 31 -130 -55 -130 -24 0 -25 2 -25 70 l0 70 31 0 c17 0 39 -5 49 -10z"/>
<path d="M14289 2350 l-66 -221 50 3 50 3 15 53 15 53 66 -3 66 -3 14 -52 14
-53 53 0 53 0 -13 43 c-7 23 -37 122 -67 219 l-54 178 -65 0 -65 0 -66 -220z
m151 62 c11 -40 20 -76 20 -82 0 -5 -21 -10 -46 -10 -39 0 -45 3 -40 18 3 9
13 48 22 85 9 37 18 66 21 64 2 -2 12 -36 23 -75z"/>
<path d="M14740 2350 l0 -220 45 0 45 0 0 163 0 162 84 -160 84 -160 51 -3 51
-3 0 220 0 221 -40 0 -40 0 -1 -152 0 -153 -24 52 c-13 29 -49 98 -80 153
l-56 100 -60 0 -59 0 0 -220z"/>
<path d="M15280 2437 l70 -134 0 -86 0 -87 45 0 45 0 0 87 0 87 70 127 c39 70
70 130 70 133 0 4 -23 6 -52 4 l-52 -3 -35 -87 c-19 -49 -37 -88 -40 -88 -3 0
-22 39 -42 88 l-35 87 -58 3 -57 3 71 -134z"/>
<path d="M4430 1340 l0 -420 3237 2 3238 3 230 387 c126 213 238 400 248 417
l18 31 -3485 0 -3486 0 0 -420z m3672 224 c27 -9 50 -20 53 -24 3 -5 -5 -29
-17 -55 -16 -33 -26 -44 -38 -39 -110 49 -180 55 -180 15 0 -25 15 -35 80 -56
123 -40 160 -75 160 -152 0 -87 -73 -142 -187 -143 -63 0 -139 22 -189 55
l-24 16 21 42 c12 23 22 43 23 44 1 1 28 -11 60 -27 96 -49 194 -37 159 19 -5
9 -43 27 -84 41 -97 34 -116 45 -134 80 -43 84 6 174 110 201 41 11 130 3 187
-17z m747 10 c28 -8 65 -27 82 -42 l30 -27 -33 -39 -34 -38 -38 26 c-58 39
-118 36 -161 -7 -19 -19 -37 -46 -41 -60 -17 -71 31 -149 100 -162 29 -6 48
-2 89 19 l52 26 34 -35 c40 -39 36 -49 -35 -91 -88 -51 -208 -41 -284 23 -125
107 -112 298 26 379 77 45 132 53 213 28z m-3749 -16 c54 -28 80 -62 87 -116
7 -52 -18 -124 -54 -152 l-25 -19 32 -53 c18 -29 39 -63 48 -75 l14 -23 -71 0
-71 0 -32 65 c-32 65 -32 65 -75 65 l-43 0 0 -65 0 -65 -65 0 -65 0 0 230 0
230 138 0 c123 0 142 -2 182 -22z m540 -28 l0 -50 -120 0 -120 0 0 -40 0 -40
110 0 110 0 0 -50 0 -50 -110 0 -110 0 0 -40 0 -40 125 0 125 0 0 -50 0 -50
-190 0 -190 0 0 230 0 230 185 0 185 0 0 -50z m450 0 l0 -50 -65 0 -65 0 0
-180 0 -180 -65 0 -65 0 0 180 0 179 -67 3 -68 3 -3 48 -3 47 200 0 201 0 0
-50z m190 -180 l0 -230 -65 0 -65 0 0 230 0 230 65 0 65 0 0 -230z m420 208
c54 -28 80 -62 87 -116 7 -52 -18 -124 -54 -152 l-25 -19 32 -53 c18 -29 39
-63 48 -75 l14 -23 -71 0 -71 0 -32 65 c-32 65 -32 65 -75 65 l-43 0 0 -65 0
-65 -65 0 -65 0 0 230 0 230 138 0 c123 0 142 -2 182 -22z m540 -28 l0 -50
-120 0 -120 0 0 -40 0 -40 110 0 110 0 0 -50 0 -50 -110 0 -110 0 0 -40 0 -40
125 0 125 0 0 -50 0 -50 -190 0 -190 0 0 230 0 230 185 0 185 0 0 -50z m460 0
l0 -50 -120 0 -120 0 0 -40 0 -40 110 0 110 0 0 -50 0 -50 -110 0 -110 0 0
-40 0 -40 125 0 125 0 0 -50 0 -50 -190 0 -190 0 0 230 0 230 185 0 185 0 0
-50z m1450 -130 l0 -180 95 0 95 0 0 -50 0 -50 -160 0 -160 0 0 230 0 230 65
0 65 0 0 -180z m380 24 l0 -156 29 -29 c32 -31 61 -36 101 -16 38 19 49 67 49
220 l1 137 60 0 60 0 0 -154 c0 -169 -8 -205 -53 -253 -66 -70 -204 -84 -287
-29 -70 46 -80 80 -80 271 l0 165 60 0 60 0 0 -156z m720 134 c77 -39 91 -120
30 -172 -28 -23 -29 -25 -10 -31 54 -17 81 -121 44 -174 -34 -48 -86 -61 -246
-61 l-148 0 0 230 0 230 143 0 c128 0 147 -2 187 -22z"/>
<path d="M4910 1415 l0 -65 63 0 c73 0 97 17 97 67 0 46 -26 63 -98 63 l-62 0
0 -65z"/>
<path d="M6510 1415 l0 -65 63 0 c73 0 97 17 97 67 0 46 -26 63 -98 63 l-62 0
0 -65z"/>
<path d="M10050 1440 l0 -40 53 0 c63 0 90 16 85 51 -3 22 -7 24 -70 27 l-68
3 0 -41z"/>
<path d="M10050 1265 l0 -45 64 0 c45 0 69 5 80 16 21 20 20 30 -4 54 -16 16
-33 20 -80 20 l-60 0 0 -45z"/>
<path d="M11299 1388 c-122 -205 -234 -394 -250 -420 l-29 -48 2285 0 2285 0
0 420 0 420 -2035 0 -2034 0 -222 -372z m839 206 c-2 -12 -31 -29 -88 -51 -47
-18 -88 -33 -92 -33 -5 0 -8 11 -8 24 0 21 11 28 88 58 87 35 107 35 100 2z
m2530 0 c-2 -12 -31 -29 -88 -51 -47 -18 -88 -33 -92 -33 -5 0 -8 11 -8 24 0
21 11 28 88 58 87 35 107 35 100 2z m-1558 -54 c0 -27 -3 -30 -30 -30 -27 0
-30 3 -30 30 0 27 3 30 30 30 27 0 30 -3 30 -30z m1920 0 c0 -27 -3 -30 -30
-30 -27 0 -30 3 -30 30 0 27 3 30 30 30 27 0 30 -3 30 -30z m-2866 -22 c7 -38
5 -40 -56 -63 -27 -10 -48 -21 -48 -24 0 -9 110 -114 140 -135 13 -9 44 -16
67 -16 l43 0 0 50 0 50 39 0 40 0 3 -47 3 -48 45 0 45 0 3 48 3 47 40 0 39 0
0 -51 c0 -47 2 -50 23 -47 19 3 22 10 25 51 l3 47 40 0 39 0 0 -50 c0 -43 3
-50 20 -50 17 0 20 7 20 50 l0 50 40 0 40 0 0 -51 0 -50 48 3 47 3 3 48 3 47
40 0 39 0 0 -51 c0 -47 2 -50 23 -47 19 3 22 10 25 51 l3 47 40 0 39 0 0 -50
c0 -43 3 -50 20 -50 17 0 20 7 20 50 l0 50 40 0 40 0 0 -51 0 -50 53 3 52 3 3
48 3 47 40 0 39 0 0 -45 c0 -55 -21 -110 -48 -124 -25 -13 -151 -14 -172 -1
-9 5 -19 5 -27 -2 -7 -6 -31 -8 -55 -4 -53 7 -53 7 -104 0 -23 -3 -51 -1 -62
5 -14 7 -23 8 -27 1 -8 -13 -135 -13 -155 0 -9 5 -19 5 -27 -2 -7 -6 -31 -8
-55 -4 -53 7 -53 7 -104 0 -23 -3 -51 -1 -62 5 -14 7 -23 8 -27 1 -3 -5 -37
-10 -75 -10 -38 0 -72 5 -75 10 -4 7 -12 7 -25 0 -10 -5 -48 -10 -83 -10 -49
0 -71 5 -88 19 -23 19 -24 19 -48 0 -20 -16 -41 -19 -146 -19 l-123 0 -26 31
c-25 30 -26 35 -26 165 l0 134 40 0 39 0 3 -122 3 -123 93 -3 c71 -2 92 0 92
10 0 8 -27 40 -60 73 -50 50 -60 65 -58 89 3 26 11 32 88 62 108 42 116 42
124 2z m2530 0 c7 -38 5 -40 -56 -63 -27 -10 -48 -21 -48 -25 0 -15 141 -140
164 -146 13 -3 37 -4 52 -2 27 3 29 6 32 51 l3 47 40 0 39 0 0 -51 c0 -47 2
-50 23 -47 19 3 22 10 25 51 l3 47 40 0 39 0 0 -50 c0 -43 3 -50 20 -50 17 0
20 7 20 50 l0 50 40 0 40 0 0 -61 c0 -54 -3 -64 -30 -91 -28 -27 -35 -29 -78
-24 -59 7 -58 7 -108 0 -23 -3 -51 -1 -62 5 -14 7 -23 8 -27 1 -3 -5 -37 -10
-74 -10 -53 0 -74 4 -92 19 -23 19 -24 19 -48 0 -20 -16 -41 -19 -141 -19
l-118 0 -26 31 c-25 30 -26 35 -26 165 l0 134 40 0 39 0 3 -122 3 -123 88 -3
c67 -2 87 0 87 10 0 8 -27 40 -60 73 -50 50 -60 65 -58 89 3 26 11 32 88 62
108 42 116 42 124 2z m-962 -110 l3 -123 45 0 45 0 3 48 3 47 40 0 39 0 0 -45
c0 -55 -21 -110 -48 -124 -12 -6 -52 -11 -90 -11 -66 0 -72 2 -96 31 -25 30
-26 35 -26 165 l0 134 40 0 39 0 3 -122z m1580 0 l3 -123 45 0 45 0 3 48 3 47
40 0 39 0 0 -45 c0 -55 -21 -110 -48 -124 -12 -6 -52 -11 -90 -11 -66 0 -72 2
-96 31 -25 30 -26 35 -26 165 l0 134 40 0 39 0 3 -122z m-2922 52 l0 -30 -70
0 -70 0 0 30 0 30 70 0 70 0 0 -30z m760 0 l0 -30 -70 0 -70 0 0 30 0 30 70 0
70 0 0 -30z m270 0 c0 -28 -2 -30 -40 -30 -38 0 -40 2 -40 30 0 28 2 30 40 30
38 0 40 -2 40 -30z m170 0 c0 -28 -2 -30 -40 -30 -38 0 -40 2 -40 30 0 28 2
30 40 30 38 0 40 -2 40 -30z m1480 0 l0 -30 -70 0 -70 0 0 30 0 30 70 0 70 0
0 -30z m-864 -22 c61 -64 74 -88 74 -136 0 -63 -40 -102 -105 -102 -95 0 -136
91 -79 176 16 23 22 40 15 42 -13 4 28 61 44 61 6 1 29 -18 51 -41z m-2586
-28 c0 -28 -2 -30 -40 -30 -38 0 -40 2 -40 30 0 28 2 30 40 30 38 0 40 -2 40
-30z m128 -134 c-5 -115 -16 -143 -71 -177 -26 -16 -45 -19 -100 -17 -60 3
-71 7 -100 36 -31 31 -32 36 -35 122 l-4 90 41 0 41 0 0 -69 c0 -83 13 -101
71 -101 65 0 79 23 79 130 l0 90 41 0 42 0 -5 -104z m1842 9 c0 -61 -5 -108
-14 -130 -20 -46 -69 -75 -127 -75 l-47 0 -4 40 -4 40 40 0 c65 0 76 18 76
127 l0 93 40 0 40 0 0 -95z m250 -165 c0 -28 -2 -30 -40 -30 -38 0 -40 2 -40
30 0 28 2 30 40 30 38 0 40 -2 40 -30z m1580 0 c0 -28 -2 -30 -40 -30 -38 0
-40 2 -40 30 0 28 2 30 40 30 38 0 40 -2 40 -30z"/>
<path d="M14157 1333 c-8 -16 -12 -34 -10 -40 6 -18 38 -16 53 2 10 12 9 20
-4 40 -21 31 -22 31 -39 -2z"/>
</g>
</svg>
