<?xml version="1.0" encoding="UTF-8" standalone="no" ?>
<!DOCTYPE svg PUBLIC "-//W3C//DTD SVG 1.1//EN" "http://www.w3.org/Graphics/SVG/1.1/DTD/svg11.dtd">
<svg xmlns="http://www.w3.org/2000/svg" xmlns:xlink="http://www.w3.org/1999/xlink" version="1.1" width="1080" height="1080" viewBox="0 0 1080 1080" xml:space="preserve">
<desc>Created with Fabric.js 5.2.4</desc>
<defs>
</defs>
<g transform="matrix(1 0 0 1 540 540)" id="ce343547-325f-43a3-97a0-19024335339c"  >
<rect style="stroke: none; stroke-width: 1; stroke-dasharray: none; stroke-linecap: butt; stroke-dashoffset: 0; stroke-linejoin: miter; stroke-miterlimit: 4; fill: rgb(255,255,255); fill-rule: nonzero; opacity: 1; visibility: hidden;" vector-effect="non-scaling-stroke"  x="-540" y="-540" rx="0" ry="0" width="1080" height="1080" />
</g>
<g transform="matrix(1 0 0 1 540 540)" id="2add06bd-25d3-4d9d-9da5-944edc2e2b50"  >
</g>
<g transform="matrix(1 0 0 1 540 524.36)"  >
<g style="" vector-effect="non-scaling-stroke"   >
		<g transform="matrix(0.13 0 0 -0.13 -701.74 -83.58)"  >
<path style="stroke: none; stroke-width: 1; stroke-dasharray: none; stroke-linecap: butt; stroke-dashoffset: 0; stroke-linejoin: miter; stroke-miterlimit: 4; fill: rgb(255,255,255); fill-rule: nonzero; opacity: 1;" vector-effect="non-scaling-stroke"  transform=" translate(-2849.17, -3207.65)" d="M 2574 5115 C 2312 5057 2062 4844 1953 4586 C 1893 4444 1869 4340 1863 4194 C 1857 4047 1869 3967 1921 3807 C 2021 3499 2172 3304 2615 2912 C 2736 2805 2880 2671 2935 2616 C 3351 2196 3559 1787 3560 1386 L 3561 1285 L 3586 1325 C 3675 1466 3772 1713 3812 1896 C 3845 2053 3845 2328 3812 2478 C 3749 2759 3621 3017 3416 3274 C 3305 3414 3209 3512 2945 3754 C 2667 4008 2511 4163 2446 4249 C 2330 4400 2287 4536 2308 4682 C 2338 4888 2483 5037 2715 5101 C 2759 5113 2797 5124 2799 5126 C 2810 5136 2628 5127 2574 5115 z" stroke-linecap="round" />
</g>
		<g transform="matrix(0.13 0 0 -0.13 -812.46 25.55)"  >
<path style="stroke: none; stroke-width: 1; stroke-dasharray: none; stroke-linecap: butt; stroke-dashoffset: 0; stroke-linejoin: miter; stroke-miterlimit: 4; fill: rgb(255,255,255); fill-rule: nonzero; opacity: 1;" vector-effect="non-scaling-stroke"  transform=" translate(-2018.8, -2389.2)" d="M 1753 4647 C 1485 4369 1357 4053 1356 3670 C 1356 3420 1408 3197 1518 2975 C 1623 2762 1716 2644 2030 2325 C 2306 2045 2340 2005 2393 1892 C 2422 1831 2425 1817 2425 1725 C 2425 1633 2422 1619 2393 1557 C 2260 1278 1907 1216 1701 1436 C 1628 1513 1599 1583 1593 1695 C 1588 1772 1591 1786 1669 2054 C 1714 2208 1750 2337 1750 2342 C 1750 2346 1549 2350 1302 2350 L 855 2350 L 757 2003 C 704 1811 653 1608 644 1550 C 617 1369 634 1155 692 980 C 824 578 1175 238 1605 97 C 1734 54 1826 38 1975 33 C 2142 26 2281 41 2435 80 C 2913 201 3259 566 3377 1073 C 3412 1220 3416 1468 3386 1595 C 3292 1998 3055 2322 2505 2800 C 2196 3070 2057 3216 1938 3400 C 1837 3555 1774 3708 1730 3906 C 1676 4146 1713 4437 1831 4685 C 1846 4717 1858 4746 1856 4747 C 1854 4749 1808 4704 1753 4647 z" stroke-linecap="round" />
</g>
		<g transform="matrix(0.13 0 0 -0.13 189.7 -191.22)"  >
<path style="stroke: none; stroke-width: 1; stroke-dasharray: none; stroke-linecap: butt; stroke-dashoffset: 0; stroke-linejoin: miter; stroke-miterlimit: 4; fill: rgb(255,255,255); fill-rule: nonzero; opacity: 1;" vector-effect="non-scaling-stroke"  transform=" translate(-9535, -4015)" d="M 9350 4060 L 9350 4000 L 9454 4000 C 9511 4000 9565 3997 9574 3994 C 9585 3990 9590 3975 9590 3949 L 9590 3910 L 9655 3910 L 9720 3910 L 9720 3958 C 9719 4020 9690 4085 9651 4104 C 9628 4116 9589 4120 9485 4120 L 9350 4120 L 9350 4060 z" stroke-linecap="round" />
</g>
		<g transform="matrix(0.13 0 0 -0.13 -462.43 -131.13)"  >
<path style="stroke: none; stroke-width: 1; stroke-dasharray: none; stroke-linecap: butt; stroke-dashoffset: 0; stroke-linejoin: miter; stroke-miterlimit: 4; fill: rgb(255,255,255); fill-rule: nonzero; opacity: 1;" vector-effect="non-scaling-stroke"  transform=" translate(-4644, -3564.28)" d="M 4830 3713 C 4830 3476 4824 3428 4787 3378 C 4733 3305 4614 3290 4542 3347 C 4487 3391 4470 3432 4470 3523 L 4470 3600 L 4404 3600 L 4337 3600 L 4343 3510 C 4352 3362 4403 3275 4512 3221 C 4621 3166 4754 3182 4844 3261 C 4869 3283 4901 3326 4917 3358 L 4945 3415 L 4948 3678 L 4951 3940 L 4891 3940 L 4830 3940 L 4830 3713 z" stroke-linecap="round" />
</g>
		<g transform="matrix(0.13 0 0 -0.13 -87.63 -131.2)"  >
<path style="stroke: none; stroke-width: 1; stroke-dasharray: none; stroke-linecap: butt; stroke-dashoffset: 0; stroke-linejoin: miter; stroke-miterlimit: 4; fill: rgb(255,255,255); fill-rule: nonzero; opacity: 1;" vector-effect="non-scaling-stroke"  transform=" translate(-7455, -3564.86)" d="M 6770 3565 L 6770 3190 L 6998 3190 C 7205 3190 7229 3192 7270 3211 C 7294 3222 7323 3238 7332 3247 C 7348 3262 7353 3261 7387 3237 C 7441 3200 7474 3190 7538 3190 C 7600 3190 7663 3214 7694 3248 L 7713 3270 L 7743 3244 C 7811 3187 7916 3173 8000 3211 C 8060 3238 8088 3265 8116 3325 C 8136 3367 8140 3391 8140 3473 L 8140 3570 L 8081 3570 L 8022 3570 L 8018 3475 C 8015 3385 8014 3379 7984 3349 C 7945 3310 7885 3300 7842 3325 C 7797 3352 7780 3389 7780 3464 L 7780 3530 L 7715 3530 L 7650 3530 L 7650 3457 C 7650 3377 7638 3350 7590 3325 C 7502 3279 7410 3348 7410 3460 L 7410 3500 L 7351 3500 L 7292 3500 L 7288 3440 C 7284 3388 7279 3374 7252 3347 L 7220 3315 L 7055 3312 L 6890 3309 L 6890 3624 L 6890 3940 L 6830 3940 L 6770 3940 L 6770 3565 z" stroke-linecap="round" />
</g>
		<g transform="matrix(0.13 0 0 -0.13 81.23 -131.22)"  >
<path style="stroke: none; stroke-width: 1; stroke-dasharray: none; stroke-linecap: butt; stroke-dashoffset: 0; stroke-linejoin: miter; stroke-miterlimit: 4; fill: rgb(255,255,255); fill-rule: nonzero; opacity: 1;" vector-effect="non-scaling-stroke"  transform=" translate(-8721.5, -3565)" d="M 8340 3565 L 8340 3190 L 8625 3190 C 8937 3190 8947 3191 9013 3249 C 9072 3302 9091 3353 9097 3485 L 9103 3600 L 9036 3600 L 8970 3600 L 8970 3499 C 8970 3388 8959 3355 8910 3326 C 8886 3313 8848 3310 8671 3310 L 8460 3310 L 8460 3625 L 8460 3940 L 8400 3940 L 8340 3940 L 8340 3565 z" stroke-linecap="round" />
</g>
		<g transform="matrix(0.13 0 0 -0.13 183.7 -133.22)"  >
<path style="stroke: none; stroke-width: 1; stroke-dasharray: none; stroke-linecap: butt; stroke-dashoffset: 0; stroke-linejoin: miter; stroke-miterlimit: 4; fill: rgb(255,255,255); fill-rule: nonzero; opacity: 1;" vector-effect="non-scaling-stroke"  transform=" translate(-9490, -3580)" d="M 9430 3580 L 9430 3220 L 9490 3220 L 9550 3220 L 9550 3580 L 9550 3940 L 9490 3940 L 9430 3940 L 9430 3580 z" stroke-linecap="round" />
</g>
		<g transform="matrix(0.13 0 0 -0.13 368.3 -105.22)"  >
<path style="stroke: none; stroke-width: 1; stroke-dasharray: none; stroke-linecap: butt; stroke-dashoffset: 0; stroke-linejoin: miter; stroke-miterlimit: 4; fill: rgb(255,255,255); fill-rule: nonzero; opacity: 1;" vector-effect="non-scaling-stroke"  transform=" translate(-10874.5, -3370)" d="M 11390 3625 L 11390 3310 L 11265 3310 L 11140 3310 L 11140 3405 L 11140 3500 L 11080 3500 L 11020 3500 L 11020 3405 L 11020 3310 L 10874 3310 C 10739 3310 10728 3311 10735 3328 C 10751 3364 10752 3465 10738 3500 C 10673 3655 10478 3696 10362 3580 C 10312 3530 10290 3468 10290 3378 L 10290 3310 L 10190 3310 L 10090 3310 L 10090 3455 L 10090 3600 L 10026 3600 L 9961 3600 L 9958 3373 C 9955 3151 9954 3144 9929 3089 C 9903 3033 9834 2955 9776 2915 L 9747 2894 L 9774 2847 C 9789 2821 9808 2800 9815 2800 C 9839 2800 9940 2884 9981 2940 C 10028 3002 10046 3040 10070 3125 L 10087 3185 L 10961 3190 C 11930 3196 11859 3190 11926 3262 C 11984 3323 11994 3354 11998 3483 L 12002 3600 L 11941 3600 L 11880 3600 L 11879 3513 C 11879 3404 11865 3363 11821 3333 C 11790 3312 11776 3310 11654 3310 L 11520 3310 L 11520 3625 L 11520 3940 L 11455 3940 L 11390 3940 L 11390 3625 z M 10593 3494 C 10608 3480 10622 3459 10626 3448 C 10637 3412 10621 3362 10589 3336 C 10562 3313 10549 3310 10484 3310 L 10410 3310 L 10410 3358 C 10410 3466 10448 3520 10525 3520 C 10557 3520 10573 3514 10593 3494 z" stroke-linecap="round" />
</g>
		<g transform="matrix(0.13 0 0 -0.13 671.7 -129.22)"  >
<path style="stroke: none; stroke-width: 1; stroke-dasharray: none; stroke-linecap: butt; stroke-dashoffset: 0; stroke-linejoin: miter; stroke-miterlimit: 4; fill: rgb(255,255,255); fill-rule: nonzero; opacity: 1;" vector-effect="non-scaling-stroke"  transform=" translate(-13150, -3550)" d="M 13541 3781 C 13422 3655 13420 3652 13420 3606 L 13420 3560 L 13564 3560 C 13643 3560 13728 3557 13754 3554 C 13857 3539 13954 3447 13967 3351 L 13973 3310 L 13626 3310 L 13280 3310 L 13280 3455 L 13280 3600 L 13220 3600 L 13160 3600 L 13160 3455 L 13160 3310 L 12852 3310 C 12494 3310 12476 3313 12400 3390 C 12351 3438 12320 3507 12320 3567 L 12320 3600 L 12259 3600 L 12197 3600 L 12202 3532 C 12211 3403 12295 3285 12420 3226 L 12485 3195 L 13294 3192 L 14103 3190 L 14098 3287 C 14094 3353 14085 3404 14071 3442 C 14040 3521 13966 3601 13884 3641 C 13828 3669 13806 3674 13719 3678 L 13618 3683 L 13667 3734 C 13763 3834 13759 3825 13715 3870 C 13693 3892 13673 3910 13669 3910 C 13665 3910 13608 3852 13541 3781 z" stroke-linecap="round" />
</g>
		<g transform="matrix(0.13 0 0 -0.13 909.77 -165.22)"  >
<path style="stroke: none; stroke-width: 1; stroke-dasharray: none; stroke-linecap: butt; stroke-dashoffset: 0; stroke-linejoin: miter; stroke-miterlimit: 4; fill: rgb(255,255,255); fill-rule: nonzero; opacity: 1;" vector-effect="non-scaling-stroke"  transform=" translate(-14935.5, -3820)" d="M 14895 3860 L 14856 3820 L 14895 3780 L 14934 3740 L 14975 3780 L 15015 3820 L 14975 3860 L 14934 3900 L 14895 3860 z" stroke-linecap="round" />
</g>
		<g transform="matrix(0.13 0 0 -0.13 920.43 -147.89)"  >
<path style="stroke: none; stroke-width: 1; stroke-dasharray: none; stroke-linecap: butt; stroke-dashoffset: 0; stroke-linejoin: miter; stroke-miterlimit: 4; fill: rgb(255,255,255); fill-rule: nonzero; opacity: 1;" vector-effect="non-scaling-stroke"  transform=" translate(-15015.5, -3690)" d="M 14975 3730 L 14936 3690 L 14975 3650 L 15014 3610 L 15055 3650 L 15095 3690 L 15055 3730 L 15014 3770 L 14975 3730 z" stroke-linecap="round" />
</g>
		<g transform="matrix(0.13 0 0 -0.13 898.37 -146.96)"  >
<path style="stroke: none; stroke-width: 1; stroke-dasharray: none; stroke-linecap: butt; stroke-dashoffset: 0; stroke-linejoin: miter; stroke-miterlimit: 4; fill: rgb(255,255,255); fill-rule: nonzero; opacity: 1;" vector-effect="non-scaling-stroke"  transform=" translate(-14850, -3683)" d="M 14807 3722 L 14770 3684 L 14810 3645 L 14850 3606 L 14890 3645 L 14930 3684 L 14893 3722 C 14873 3743 14853 3760 14850 3760 C 14847 3760 14827 3743 14807 3722 z" stroke-linecap="round" />
</g>
		<g transform="matrix(0.13 0 0 -0.13 608.43 -137.22)"  >
<path style="stroke: none; stroke-width: 1; stroke-dasharray: none; stroke-linecap: butt; stroke-dashoffset: 0; stroke-linejoin: miter; stroke-miterlimit: 4; fill: rgb(255,255,255); fill-rule: nonzero; opacity: 1;" vector-effect="non-scaling-stroke"  transform=" translate(-12675.5, -3610)" d="M 12635 3650 L 12596 3610 L 12635 3570 L 12674 3530 L 12715 3570 L 12755 3610 L 12715 3650 L 12674 3690 L 12635 3650 z" stroke-linecap="round" />
</g>
		<g transform="matrix(0.13 0 0 -0.13 629.77 -137.22)"  >
<path style="stroke: none; stroke-width: 1; stroke-dasharray: none; stroke-linecap: butt; stroke-dashoffset: 0; stroke-linejoin: miter; stroke-miterlimit: 4; fill: rgb(255,255,255); fill-rule: nonzero; opacity: 1;" vector-effect="non-scaling-stroke"  transform=" translate(-12835.5, -3610)" d="M 12795 3650 L 12756 3610 L 12795 3570 L 12834 3530 L 12875 3570 L 12915 3610 L 12875 3650 L 12834 3690 L 12795 3650 z" stroke-linecap="round" />
</g>
		<g transform="matrix(0.13 0 0 -0.13 -301.63 -85.78)"  >
<path style="stroke: none; stroke-width: 1; stroke-dasharray: none; stroke-linecap: butt; stroke-dashoffset: 0; stroke-linejoin: miter; stroke-miterlimit: 4; fill: rgb(255,255,255); fill-rule: nonzero; opacity: 1;" vector-effect="non-scaling-stroke"  transform=" translate(-5850, -3224.18)" d="M 5220 3641 C 5112 3608 5050 3526 5050 3415 C 5050 3324 5105 3238 5185 3205 C 5196 3200 5243 3194 5290 3191 C 5373 3185 5375 3185 5372 3160 C 5365 3087 5289 2982 5196 2915 L 5168 2895 L 5195 2848 C 5210 2821 5227 2800 5234 2800 C 5241 2800 5271 2817 5301 2839 C 5392 2904 5452 2993 5486 3110 L 5508 3185 L 5631 3190 C 5756 3195 5795 3206 5842 3248 C 5858 3261 5863 3260 5897 3237 C 5951 3200 5984 3190 6048 3190 C 6110 3190 6173 3214 6204 3248 L 6223 3270 L 6253 3244 C 6321 3187 6426 3173 6510 3211 C 6570 3238 6598 3265 6626 3325 C 6646 3367 6650 3391 6650 3473 L 6650 3570 L 6591 3570 L 6532 3570 L 6528 3475 C 6525 3385 6524 3379 6494 3349 C 6455 3310 6395 3300 6352 3325 C 6307 3352 6290 3389 6290 3464 L 6290 3530 L 6225 3530 L 6160 3530 L 6160 3457 C 6160 3377 6148 3350 6100 3325 C 6012 3279 5920 3348 5920 3460 L 5920 3500 L 5861 3500 L 5802 3500 L 5798 3440 C 5794 3388 5789 3374 5762 3347 C 5730 3315 5728 3315 5620 3312 L 5510 3308 L 5510 3372 C 5510 3465 5488 3530 5439 3579 C 5381 3637 5291 3662 5220 3641 z M 5351 3491 C 5378 3464 5380 3456 5380 3386 L 5380 3310 L 5309 3310 C 5242 3310 5236 3312 5204 3344 C 5134 3414 5178 3519 5278 3520 C 5313 3520 5327 3514 5351 3491 z" stroke-linecap="round" />
</g>
		<g transform="matrix(0.13 0 0 -0.13 138.43 -81.96)"  >
<path style="stroke: none; stroke-width: 1; stroke-dasharray: none; stroke-linecap: butt; stroke-dashoffset: 0; stroke-linejoin: miter; stroke-miterlimit: 4; fill: rgb(255,255,255); fill-rule: nonzero; opacity: 1;" vector-effect="non-scaling-stroke"  transform=" translate(-9150.5, -3195.5)" d="M 9198 3383 C 9193 3117 9184 3083 9086 2985 C 9052 2951 9015 2917 9003 2909 L 8981 2895 L 9011 2843 L 9041 2791 L 9078 2813 C 9136 2846 9232 2950 9262 3012 C 9312 3114 9320 3166 9320 3392 L 9320 3600 L 9261 3600 L 9202 3600 L 9198 3383 z" stroke-linecap="round" />
</g>
		<g transform="matrix(0.13 0 0 -0.13 891.23 -81.89)"  >
<path style="stroke: none; stroke-width: 1; stroke-dasharray: none; stroke-linecap: butt; stroke-dashoffset: 0; stroke-linejoin: miter; stroke-miterlimit: 4; fill: rgb(255,255,255); fill-rule: nonzero; opacity: 1;" vector-effect="non-scaling-stroke"  transform=" translate(-14796.5, -3195)" d="M 14208 3378 C 14205 3158 14205 3154 14177 3096 C 14142 3021 14094 2962 14041 2930 C 14019 2916 14000 2901 14000 2895 C 14000 2890 14013 2864 14028 2838 L 14056 2790 L 14106 2824 C 14211 2895 14294 3015 14321 3137 L 14333 3190 L 14502 3190 C 14652 3190 14675 3192 14715 3211 C 14739 3222 14764 3238 14771 3246 C 14787 3265 14804 3264 14825 3240 C 14880 3180 15022 3173 15109 3228 L 15160 3259 L 15211 3228 C 15251 3203 15276 3195 15325 3192 C 15404 3187 15447 3201 15503 3250 C 15562 3303 15581 3353 15588 3473 L 15593 3570 L 15526 3570 L 15460 3570 L 15460 3485 C 15460 3428 15455 3389 15445 3370 C 15410 3302 15313 3292 15256 3349 C 15228 3377 15225 3387 15222 3455 L 15218 3530 L 15159 3530 L 15100 3530 L 15100 3475 C 15100 3380 15064 3324 14996 3313 C 14915 3300 14860 3353 14860 3444 L 14860 3500 L 14795 3500 L 14730 3500 L 14730 3449 C 14730 3391 14710 3350 14670 3326 C 14647 3313 14612 3310 14486 3310 L 14330 3310 L 14330 3455 L 14330 3600 L 14271 3600 L 14211 3600 L 14208 3378 z" stroke-linecap="round" />
</g>
		<g transform="matrix(0.13 0 0 -0.13 69.77 -59.89)"  >
<path style="stroke: none; stroke-width: 1; stroke-dasharray: none; stroke-linecap: butt; stroke-dashoffset: 0; stroke-linejoin: miter; stroke-miterlimit: 4; fill: rgb(255,255,255); fill-rule: nonzero; opacity: 1;" vector-effect="non-scaling-stroke"  transform=" translate(-8635.5, -3030)" d="M 8595 3070 L 8556 3030 L 8595 2990 L 8634 2950 L 8675 2990 L 8715 3030 L 8675 3070 L 8634 3110 L 8595 3070 z" stroke-linecap="round" />
</g>
		<g transform="matrix(0.13 0 0 -0.13 377.77 -59.89)"  >
<path style="stroke: none; stroke-width: 1; stroke-dasharray: none; stroke-linecap: butt; stroke-dashoffset: 0; stroke-linejoin: miter; stroke-miterlimit: 4; fill: rgb(255,255,255); fill-rule: nonzero; opacity: 1;" vector-effect="non-scaling-stroke"  transform=" translate(-10945.5, -3030)" d="M 10905 3070 L 10866 3030 L 10905 2990 L 10944 2950 L 10985 2990 L 11025 3030 L 10985 3070 L 10944 3110 L 10905 3070 z" stroke-linecap="round" />
</g>
		<g transform="matrix(0.13 0 0 -0.13 473.37 -59.62)"  >
<path style="stroke: none; stroke-width: 1; stroke-dasharray: none; stroke-linecap: butt; stroke-dashoffset: 0; stroke-linejoin: miter; stroke-miterlimit: 4; fill: rgb(255,255,255); fill-rule: nonzero; opacity: 1;" vector-effect="non-scaling-stroke"  transform=" translate(-11662.5, -3028)" d="M 11703 3068 L 11660 3026 L 11620 3065 L 11580 3104 L 11540 3064 L 11500 3024 L 11540 2985 L 11580 2946 L 11620 2985 L 11660 3024 L 11700 2985 L 11740 2946 L 11783 2988 L 11825 3030 L 11785 3070 L 11745 3110 L 11703 3068 z" stroke-linecap="round" />
</g>
		<g transform="matrix(0.13 0 0 -0.13 91.7 -58.96)"  >
<path style="stroke: none; stroke-width: 1; stroke-dasharray: none; stroke-linecap: butt; stroke-dashoffset: 0; stroke-linejoin: miter; stroke-miterlimit: 4; fill: rgb(255,255,255); fill-rule: nonzero; opacity: 1;" vector-effect="non-scaling-stroke"  transform=" translate(-8800, -3023)" d="M 8757 3062 L 8720 3024 L 8760 2985 L 8800 2946 L 8840 2985 L 8880 3024 L 8843 3062 C 8823 3083 8803 3100 8800 3100 C 8797 3100 8777 3083 8757 3062 z" stroke-linecap="round" />
</g>
		<g transform="matrix(0.13 0 0 -0.13 355.7 -58.96)"  >
<path style="stroke: none; stroke-width: 1; stroke-dasharray: none; stroke-linecap: butt; stroke-dashoffset: 0; stroke-linejoin: miter; stroke-miterlimit: 4; fill: rgb(255,255,255); fill-rule: nonzero; opacity: 1;" vector-effect="non-scaling-stroke"  transform=" translate(-10780, -3023)" d="M 10737 3062 L 10700 3024 L 10740 2985 L 10780 2946 L 10820 2985 L 10860 3024 L 10823 3062 C 10803 3083 10783 3100 10780 3100 C 10777 3100 10757 3083 10737 3062 z" stroke-linecap="round" />
</g>
		<g transform="matrix(0.13 0 0 -0.13 473.03 -41.62)"  >
<path style="stroke: none; stroke-width: 1; stroke-dasharray: none; stroke-linecap: butt; stroke-dashoffset: 0; stroke-linejoin: miter; stroke-miterlimit: 4; fill: rgb(255,255,255); fill-rule: nonzero; opacity: 1;" vector-effect="non-scaling-stroke"  transform=" translate(-11660, -2893)" d="M 11617 2932 L 11580 2894 L 11620 2855 L 11660 2816 L 11700 2855 L 11740 2894 L 11703 2932 C 11683 2953 11663 2970 11660 2970 C 11657 2970 11637 2953 11617 2932 z" stroke-linecap="round" />
</g>
		<g transform="matrix(0.13 0 0 -0.13 -210.9 30.62)"  >
<path style="stroke: none; stroke-width: 1; stroke-dasharray: none; stroke-linecap: butt; stroke-dashoffset: 0; stroke-linejoin: miter; stroke-miterlimit: 4; fill: rgb(255,255,255); fill-rule: nonzero; opacity: 1;" vector-effect="non-scaling-stroke"  transform=" translate(-6530.46, -2351.17)" d="M 6505 2571 C 6433 2553 6390 2508 6390 2451 C 6390 2391 6419 2357 6505 2316 C 6575 2283 6581 2278 6578 2252 C 6572 2202 6501 2190 6419 2224 C 6406 2230 6400 2222 6393 2191 L 6382 2151 L 6419 2139 C 6469 2122 6558 2124 6602 2143 C 6670 2172 6699 2254 6664 2321 C 6653 2343 6628 2361 6572 2388 C 6506 2420 6495 2429 6492 2452 C 6487 2490 6527 2506 6590 2492 C 6641 2480 6645 2483 6654 2526 C 6659 2549 6657 2559 6646 2563 C 6617 2574 6535 2579 6505 2571 z" stroke-linecap="round" />
</g>
		<g transform="matrix(0.13 0 0 -0.13 -89.38 30.56)"  >
<path style="stroke: none; stroke-width: 1; stroke-dasharray: none; stroke-linecap: butt; stroke-dashoffset: 0; stroke-linejoin: miter; stroke-miterlimit: 4; fill: rgb(255,255,255); fill-rule: nonzero; opacity: 1;" vector-effect="non-scaling-stroke"  transform=" translate(-7441.93, -2351.59)" d="M 7415 2573 C 7337 2554 7300 2511 7300 2442 C 7300 2389 7330 2354 7404 2320 C 7497 2279 7516 2240 7456 2211 C 7432 2200 7419 2200 7369 2212 L 7310 2227 L 7300 2191 C 7295 2172 7294 2152 7298 2148 C 7302 2144 7330 2136 7360 2130 C 7500 2104 7609 2181 7585 2289 C 7577 2327 7537 2363 7470 2393 C 7401 2423 7385 2441 7400 2469 C 7417 2502 7456 2507 7532 2484 C 7542 2481 7550 2486 7553 2497 C 7556 2507 7561 2525 7565 2537 C 7570 2556 7565 2559 7520 2569 C 7467 2580 7449 2581 7415 2573 z" stroke-linecap="round" />
</g>
		<g transform="matrix(0.13 0 0 -0.13 -26.65 30.67)"  >
<path style="stroke: none; stroke-width: 1; stroke-dasharray: none; stroke-linecap: butt; stroke-dashoffset: 0; stroke-linejoin: miter; stroke-miterlimit: 4; fill: rgb(255,255,255); fill-rule: nonzero; opacity: 1;" vector-effect="non-scaling-stroke"  transform=" translate(-7912.36, -2350.77)" d="M 7846 2566 C 7751 2530 7705 2458 7706 2345 C 7707 2233 7755 2161 7847 2134 C 7960 2101 8071 2156 8106 2262 C 8128 2330 8121 2423 8089 2480 C 8045 2558 7932 2598 7846 2566 z M 7953 2489 C 8031 2454 8041 2286 7969 2226 C 7892 2161 7806 2227 7807 2351 C 7808 2463 7874 2525 7953 2489 z" stroke-linecap="round" />
</g>
		<g transform="matrix(0.13 0 0 -0.13 182.14 30.42)"  >
<path style="stroke: none; stroke-width: 1; stroke-dasharray: none; stroke-linecap: butt; stroke-dashoffset: 0; stroke-linejoin: miter; stroke-miterlimit: 4; fill: rgb(255,255,255); fill-rule: nonzero; opacity: 1;" vector-effect="non-scaling-stroke"  transform=" translate(-9478.31, -2352.7)" d="M 9405 2565 C 9356 2548 9298 2485 9282 2432 C 9256 2346 9272 2251 9322 2194 C 9366 2144 9405 2127 9475 2127 C 9584 2127 9656 2185 9680 2295 C 9721 2480 9574 2624 9405 2565 z M 9528 2484 C 9563 2460 9580 2416 9580 2350 C 9580 2284 9563 2240 9528 2216 C 9458 2167 9370 2242 9370 2349 C 9370 2461 9456 2535 9528 2484 z" stroke-linecap="round" />
</g>
		<g transform="matrix(0.13 0 0 -0.13 574.98 30.77)"  >
<path style="stroke: none; stroke-width: 1; stroke-dasharray: none; stroke-linecap: butt; stroke-dashoffset: 0; stroke-linejoin: miter; stroke-miterlimit: 4; fill: rgb(255,255,255); fill-rule: nonzero; opacity: 1;" vector-effect="non-scaling-stroke"  transform=" translate(-12424.58, -2350.05)" d="M 12418 2567 C 12313 2537 12255 2457 12256 2340 C 12257 2226 12314 2155 12423 2130 C 12471 2120 12556 2125 12579 2140 C 12587 2145 12589 2159 12585 2182 L 12578 2217 L 12535 2209 C 12430 2189 12358 2247 12358 2350 C 12358 2456 12433 2515 12537 2492 L 12578 2483 L 12588 2521 C 12596 2551 12595 2560 12583 2564 C 12549 2578 12461 2579 12418 2567 z" stroke-linecap="round" />
</g>
		<g transform="matrix(0.13 0 0 -0.13 637.7 30.78)"  >
<path style="stroke: none; stroke-width: 1; stroke-dasharray: none; stroke-linecap: butt; stroke-dashoffset: 0; stroke-linejoin: miter; stroke-miterlimit: 4; fill: rgb(255,255,255); fill-rule: nonzero; opacity: 1;" vector-effect="non-scaling-stroke"  transform=" translate(-12895, -2349.95)" d="M 12826 2565 C 12739 2534 12691 2456 12690 2346 C 12690 2226 12742 2153 12846 2129 C 12887 2119 12906 2120 12951 2133 C 13047 2162 13099 2235 13100 2344 C 13100 2425 13082 2478 13039 2521 C 12985 2575 12902 2592 12826 2565 z M 12946 2485 C 13024 2431 13013 2244 12931 2210 C 12890 2193 12844 2206 12817 2242 C 12792 2276 12783 2372 12800 2424 C 12822 2490 12895 2521 12946 2485 z" stroke-linecap="round" />
</g>
		<g transform="matrix(0.13 0 0 -0.13 -474.36 30.78)"  >
<path style="stroke: none; stroke-width: 1; stroke-dasharray: none; stroke-linecap: butt; stroke-dashoffset: 0; stroke-linejoin: miter; stroke-miterlimit: 4; fill: rgb(255,255,255); fill-rule: nonzero; opacity: 1;" vector-effect="non-scaling-stroke"  transform=" translate(-4554.55, -2350)" d="M 4485 2558 C 4472 2521 4360 2144 4360 2138 C 4360 2133 4382 2130 4409 2130 L 4459 2130 L 4471 2185 L 4483 2240 L 4550 2240 L 4617 2240 L 4631 2188 L 4645 2135 L 4699 2132 C 4747 2129 4752 2131 4748 2147 C 4745 2157 4714 2256 4680 2368 L 4617 2570 L 4553 2570 C 4511 2570 4488 2566 4485 2558 z M 4573 2415 C 4581 2382 4592 2347 4595 2338 C 4601 2322 4596 2320 4553 2320 L 4503 2320 L 4524 2404 C 4536 2451 4548 2486 4551 2482 C 4554 2478 4564 2448 4573 2415 z" stroke-linecap="round" />
</g>
		<g transform="matrix(0.13 0 0 -0.13 -409.63 30.78)"  >
<path style="stroke: none; stroke-width: 1; stroke-dasharray: none; stroke-linecap: butt; stroke-dashoffset: 0; stroke-linejoin: miter; stroke-miterlimit: 4; fill: rgb(255,255,255); fill-rule: nonzero; opacity: 1;" vector-effect="non-scaling-stroke"  transform=" translate(-5040, -2350)" d="M 4880 2350 L 4880 2130 L 4925 2130 L 4970 2130 L 4970 2215 L 4970 2300 L 5003 2300 C 5046 2300 5065 2279 5081 2215 C 5100 2136 5105 2130 5155 2130 C 5180 2130 5200 2133 5200 2137 C 5200 2167 5154 2302 5139 2316 C 5121 2332 5121 2334 5156 2373 C 5189 2409 5192 2417 5187 2457 C 5178 2542 5127 2570 4980 2570 L 4880 2570 L 4880 2350 z M 5072 2483 C 5094 2463 5096 2417 5075 2396 C 5057 2379 4997 2365 4981 2375 C 4969 2382 4966 2482 4977 2493 C 4990 2506 5054 2500 5072 2483 z" stroke-linecap="round" />
</g>
		<g transform="matrix(0.13 0 0 -0.13 -353.36 30.71)"  >
<path style="stroke: none; stroke-width: 1; stroke-dasharray: none; stroke-linecap: butt; stroke-dashoffset: 0; stroke-linejoin: miter; stroke-miterlimit: 4; fill: rgb(255,255,255); fill-rule: nonzero; opacity: 1;" vector-effect="non-scaling-stroke"  transform=" translate(-5462.02, -2350.5)" d="M 5350 2437 L 5420 2303 L 5420 2217 L 5420 2130 L 5465 2130 L 5510 2130 L 5510 2219 L 5510 2308 L 5575 2423 C 5665 2582 5663 2572 5599 2568 L 5546 2565 L 5511 2478 C 5491 2430 5472 2390 5469 2390 C 5466 2390 5448 2429 5429 2478 L 5394 2565 L 5337 2568 L 5279 2571 L 5350 2437 z" stroke-linecap="round" />
</g>
		<g transform="matrix(0.13 0 0 -0.13 -297.63 30.71)"  >
<path style="stroke: none; stroke-width: 1; stroke-dasharray: none; stroke-linecap: butt; stroke-dashoffset: 0; stroke-linejoin: miter; stroke-miterlimit: 4; fill: rgb(255,255,255); fill-rule: nonzero; opacity: 1;" vector-effect="non-scaling-stroke"  transform=" translate(-5880, -2350.5)" d="M 5782 2463 C 5764 2404 5735 2304 5716 2243 L 5682 2130 L 5731 2130 C 5762 2130 5782 2135 5785 2143 C 5787 2149 5794 2174 5800 2198 L 5811 2241 L 5877 2238 L 5943 2235 L 5958 2183 L 5973 2130 L 6025 2130 L 6078 2130 L 6053 2213 C 6039 2258 6009 2356 5986 2430 L 5944 2565 L 5879 2568 L 5813 2571 L 5782 2463 z M 5916 2348 C 5921 2321 5921 2320 5875 2320 C 5831 2320 5828 2321 5834 2343 C 5837 2355 5848 2394 5857 2430 L 5874 2495 L 5892 2435 C 5901 2402 5912 2363 5916 2348 z" stroke-linecap="round" />
</g>
		<g transform="matrix(0.13 0 0 -0.13 -150.4 30.78)"  >
<path style="stroke: none; stroke-width: 1; stroke-dasharray: none; stroke-linecap: butt; stroke-dashoffset: 0; stroke-linejoin: miter; stroke-miterlimit: 4; fill: rgb(255,255,255); fill-rule: nonzero; opacity: 1;" vector-effect="non-scaling-stroke"  transform=" translate(-6984.23, -2350)" d="M 6917 2563 C 6911 2552 6790 2149 6790 2138 C 6790 2134 6812 2130 6838 2130 L 6887 2130 L 6899 2185 L 6911 2240 L 6978 2240 L 7045 2240 L 7060 2188 L 7075 2135 L 7129 2132 C 7170 2130 7181 2132 7178 2142 C 7175 2149 7145 2248 7110 2363 L 7046 2570 L 6984 2570 C 6949 2570 6919 2567 6917 2563 z M 7005 2401 L 7028 2320 L 6978 2320 C 6942 2320 6930 2324 6933 2333 C 6936 2339 6946 2378 6956 2417 C 6966 2457 6976 2488 6978 2486 C 6980 2483 6992 2445 7005 2401 z" stroke-linecap="round" />
</g>
		<g transform="matrix(0.13 0 0 -0.13 36.37 30.78)"  >
<path style="stroke: none; stroke-width: 1; stroke-dasharray: none; stroke-linecap: butt; stroke-dashoffset: 0; stroke-linejoin: miter; stroke-miterlimit: 4; fill: rgb(255,255,255); fill-rule: nonzero; opacity: 1;" vector-effect="non-scaling-stroke"  transform=" translate(-8385, -2350)" d="M 8250 2350 L 8250 2130 L 8385 2130 L 8520 2130 L 8520 2170 L 8520 2210 L 8435 2210 L 8350 2210 L 8350 2390 L 8350 2570 L 8300 2570 L 8250 2570 L 8250 2350 z" stroke-linecap="round" />
</g>
		<g transform="matrix(0.13 0 0 -0.13 119 30.78)"  >
<path style="stroke: none; stroke-width: 1; stroke-dasharray: none; stroke-linecap: butt; stroke-dashoffset: 0; stroke-linejoin: miter; stroke-miterlimit: 4; fill: rgb(255,255,255); fill-rule: nonzero; opacity: 1;" vector-effect="non-scaling-stroke"  transform=" translate(-9004.72, -2350)" d="M 8850 2350 L 8850 2130 L 8895 2130 L 8940 2130 L 8940 2210 L 8940 2290 L 8993 2290 C 9116 2290 9193 2393 9145 2494 C 9117 2552 9071 2570 8950 2570 L 8850 2570 L 8850 2350 z M 9040 2480 C 9086 2434 9046 2360 8974 2360 L 8940 2360 L 8940 2430 L 8940 2500 L 8980 2500 C 9007 2500 9027 2493 9040 2480 z" stroke-linecap="round" />
</g>
		<g transform="matrix(0.13 0 0 -0.13 245.7 30.78)"  >
<path style="stroke: none; stroke-width: 1; stroke-dasharray: none; stroke-linecap: butt; stroke-dashoffset: 0; stroke-linejoin: miter; stroke-miterlimit: 4; fill: rgb(255,255,255); fill-rule: nonzero; opacity: 1;" vector-effect="non-scaling-stroke"  transform=" translate(-9955, -2350)" d="M 9820 2350 L 9820 2130 L 9955 2130 L 10090 2130 L 10090 2170 L 10090 2210 L 10005 2210 L 9920 2210 L 9920 2390 L 9920 2570 L 9870 2570 L 9820 2570 L 9820 2350 z" stroke-linecap="round" />
</g>
		<g transform="matrix(0.13 0 0 -0.13 292.9 30.71)"  >
<path style="stroke: none; stroke-width: 1; stroke-dasharray: none; stroke-linecap: butt; stroke-dashoffset: 0; stroke-linejoin: miter; stroke-miterlimit: 4; fill: rgb(255,255,255); fill-rule: nonzero; opacity: 1;" vector-effect="non-scaling-stroke"  transform=" translate(-10309, -2350.5)" d="M 10148 2518 C 10266 2303 10260 2319 10260 2220 L 10260 2130 L 10310 2130 L 10360 2130 L 10360 2226 L 10360 2322 L 10430 2446 L 10499 2571 L 10443 2568 L 10387 2565 L 10352 2478 C 10332 2429 10314 2390 10311 2390 C 10308 2390 10289 2430 10270 2478 L 10235 2565 L 10177 2568 L 10119 2571 L 10148 2518 z" stroke-linecap="round" />
</g>
		<g transform="matrix(0.13 0 0 -0.13 362.43 30.78)"  >
<path style="stroke: none; stroke-width: 1; stroke-dasharray: none; stroke-linecap: butt; stroke-dashoffset: 0; stroke-linejoin: miter; stroke-miterlimit: 4; fill: rgb(255,255,255); fill-rule: nonzero; opacity: 1;" vector-effect="non-scaling-stroke"  transform=" translate(-10830.5, -2350)" d="M 10616 2513 C 10613 2481 10608 2408 10605 2350 C 10602 2292 10597 2219 10594 2188 L 10588 2130 L 10634 2130 C 10679 2130 10680 2131 10681 2163 C 10682 2180 10685 2258 10689 2335 C 10696 2494 10690 2501 10752 2262 L 10784 2139 L 10824 2142 L 10864 2145 L 10912 2304 C 10939 2392 10963 2466 10965 2469 C 10968 2471 10970 2420 10970 2354 C 10970 2289 10973 2211 10976 2183 L 10983 2130 L 11028 2130 L 11073 2130 L 11067 2238 C 11063 2297 11057 2396 11054 2458 L 11047 2570 L 10984 2570 L 10921 2570 L 10892 2478 C 10875 2427 10856 2359 10849 2327 C 10842 2296 10835 2272 10832 2275 C 10829 2278 10817 2319 10804 2367 C 10792 2416 10775 2481 10765 2513 L 10749 2570 L 10685 2570 L 10622 2570 L 10616 2513 z" stroke-linecap="round" />
</g>
		<g transform="matrix(0.13 0 0 -0.13 432.37 30.78)"  >
<path style="stroke: none; stroke-width: 1; stroke-dasharray: none; stroke-linecap: butt; stroke-dashoffset: 0; stroke-linejoin: miter; stroke-miterlimit: 4; fill: rgb(255,255,255); fill-rule: nonzero; opacity: 1;" vector-effect="non-scaling-stroke"  transform=" translate(-11355, -2350)" d="M 11220 2350 L 11220 2130 L 11355 2130 L 11490 2130 L 11490 2170 L 11490 2210 L 11400 2210 L 11310 2210 L 11310 2265 L 11310 2320 L 11390 2320 L 11470 2320 L 11470 2360 L 11470 2400 L 11390 2400 L 11310 2400 L 11310 2445 L 11310 2490 L 11395 2490 L 11480 2490 L 11480 2530 L 11480 2570 L 11350 2570 L 11220 2570 L 11220 2350 z" stroke-linecap="round" />
</g>
		<g transform="matrix(0.13 0 0 -0.13 490.28 30.78)"  >
<path style="stroke: none; stroke-width: 1; stroke-dasharray: none; stroke-linecap: butt; stroke-dashoffset: 0; stroke-linejoin: miter; stroke-miterlimit: 4; fill: rgb(255,255,255); fill-rule: nonzero; opacity: 1;" vector-effect="non-scaling-stroke"  transform=" translate(-11789.35, -2350)" d="M 11630 2350 L 11630 2130 L 11675 2130 L 11720 2130 L 11720 2215 L 11720 2300 L 11753 2300 C 11798 2300 11815 2279 11835 2198 L 11852 2130 L 11902 2130 C 11952 2130 11952 2130 11946 2158 C 11926 2239 11908 2290 11890 2313 L 11869 2339 L 11902 2369 C 11931 2395 11935 2404 11935 2448 C 11935 2539 11884 2570 11730 2570 L 11630 2570 L 11630 2350 z M 11818 2484 C 11846 2465 11847 2420 11820 2395 C 11809 2385 11784 2377 11763 2376 L 11725 2375 L 11722 2438 L 11719 2500 L 11757 2500 C 11778 2500 11806 2493 11818 2484 z" stroke-linecap="round" />
</g>
		<g transform="matrix(0.13 0 0 -0.13 714.34 30.81)"  >
<path style="stroke: none; stroke-width: 1; stroke-dasharray: none; stroke-linecap: butt; stroke-dashoffset: 0; stroke-linejoin: miter; stroke-miterlimit: 4; fill: rgb(255,255,255); fill-rule: nonzero; opacity: 1;" vector-effect="non-scaling-stroke"  transform=" translate(-13469.76, -2349.78)" d="M 13242 2378 C 13225 2105 13222 2130 13275 2130 L 13320 2130 L 13320 2193 C 13320 2228 13323 2306 13327 2365 L 13333 2474 L 13360 2364 C 13375 2304 13395 2229 13404 2198 C 13420 2140 13421 2140 13459 2140 L 13497 2140 L 13544 2293 C 13569 2376 13591 2452 13592 2460 C 13595 2491 13608 2302 13609 2218 L 13610 2130 L 13661 2130 C 13711 2130 13712 2130 13706 2158 C 13703 2173 13698 2259 13695 2350 C 13686 2584 13691 2570 13616 2570 L 13554 2570 L 13523 2463 C 13505 2403 13486 2335 13479 2310 L 13467 2265 L 13434 2390 C 13415 2459 13397 2527 13394 2543 C 13388 2569 13385 2570 13320 2570 L 13253 2570 L 13242 2378 z" stroke-linecap="round" />
</g>
		<g transform="matrix(0.13 0 0 -0.13 785.54 30.76)"  >
<path style="stroke: none; stroke-width: 1; stroke-dasharray: none; stroke-linecap: butt; stroke-dashoffset: 0; stroke-linejoin: miter; stroke-miterlimit: 4; fill: rgb(255,255,255); fill-rule: nonzero; opacity: 1;" vector-effect="non-scaling-stroke"  transform=" translate(-14003.8, -2350.1)" d="M 13857 2563 C 13853 2560 13850 2461 13850 2343 L 13850 2130 L 13900 2130 L 13950 2130 L 13950 2210 L 13950 2290 L 13995 2290 C 14091 2290 14151 2339 14157 2422 C 14162 2487 14136 2534 14085 2556 C 14050 2570 13870 2576 13857 2563 z M 14030 2490 C 14100 2453 14061 2360 13975 2360 C 13951 2360 13950 2362 13950 2430 L 13950 2500 L 13981 2500 C 13998 2500 14020 2495 14030 2490 z" stroke-linecap="round" />
</g>
		<g transform="matrix(0.13 0 0 -0.13 841.17 30.84)"  >
<path style="stroke: none; stroke-width: 1; stroke-dasharray: none; stroke-linecap: butt; stroke-dashoffset: 0; stroke-linejoin: miter; stroke-miterlimit: 4; fill: rgb(255,255,255); fill-rule: nonzero; opacity: 1;" vector-effect="non-scaling-stroke"  transform=" translate(-14421, -2349.5)" d="M 14289 2350 L 14223 2129 L 14273 2132 L 14323 2135 L 14338 2188 L 14353 2241 L 14419 2238 L 14485 2235 L 14499 2183 L 14513 2130 L 14566 2130 L 14619 2130 L 14606 2173 C 14599 2196 14569 2295 14539 2392 L 14485 2570 L 14420 2570 L 14355 2570 L 14289 2350 z M 14440 2412 C 14451 2372 14460 2336 14460 2330 C 14460 2325 14439 2320 14414 2320 C 14375 2320 14369 2323 14374 2338 C 14377 2347 14387 2386 14396 2423 C 14405 2460 14414 2489 14417 2487 C 14419 2485 14429 2451 14440 2412 z" stroke-linecap="round" />
</g>
		<g transform="matrix(0.13 0 0 -0.13 907.7 30.84)"  >
<path style="stroke: none; stroke-width: 1; stroke-dasharray: none; stroke-linecap: butt; stroke-dashoffset: 0; stroke-linejoin: miter; stroke-miterlimit: 4; fill: rgb(255,255,255); fill-rule: nonzero; opacity: 1;" vector-effect="non-scaling-stroke"  transform=" translate(-14920, -2349.5)" d="M 14740 2350 L 14740 2130 L 14785 2130 L 14830 2130 L 14830 2293 L 14830 2455 L 14914 2295 L 14998 2135 L 15049 2132 L 15100 2129 L 15100 2349 L 15100 2570 L 15060 2570 L 15020 2570 L 15019 2418 L 15019 2265 L 14995 2317 C 14982 2346 14946 2415 14915 2470 L 14859 2570 L 14799 2570 L 14740 2570 L 14740 2350 z" stroke-linecap="round" />
</g>
		<g transform="matrix(0.13 0 0 -0.13 970.97 30.71)"  >
<path style="stroke: none; stroke-width: 1; stroke-dasharray: none; stroke-linecap: butt; stroke-dashoffset: 0; stroke-linejoin: miter; stroke-miterlimit: 4; fill: rgb(255,255,255); fill-rule: nonzero; opacity: 1;" vector-effect="non-scaling-stroke"  transform=" translate(-15394.5, -2350.5)" d="M 15280 2437 L 15350 2303 L 15350 2217 L 15350 2130 L 15395 2130 L 15440 2130 L 15440 2217 L 15440 2304 L 15510 2431 C 15549 2501 15580 2561 15580 2564 C 15580 2568 15557 2570 15528 2568 L 15476 2565 L 15441 2478 C 15422 2429 15404 2390 15401 2390 C 15398 2390 15379 2429 15359 2478 L 15324 2565 L 15266 2568 L 15209 2571 L 15280 2437 z" stroke-linecap="round" />
</g>
		<g transform="matrix(0.13 0 0 -0.13 -26.23 165.44)"  >
<path style="stroke: none; stroke-width: 1; stroke-dasharray: none; stroke-linecap: butt; stroke-dashoffset: 0; stroke-linejoin: miter; stroke-miterlimit: 4; fill: rgb(255,255,255); fill-rule: nonzero; opacity: 1;" vector-effect="non-scaling-stroke"  transform=" translate(-7915.5, -1340)" d="M 4430 1340 L 4430 920 L 7667 922 L 10905 925 L 11135 1312 C 11261 1525 11373 1712 11383 1729 L 11401 1760 L 7916 1760 L 4430 1760 L 4430 1340 z M 8102 1564 C 8129 1555 8152 1544 8155 1540 C 8158 1535 8150 1511 8138 1485 C 8122 1452 8112 1441 8100 1446 C 7990 1495 7920 1501 7920 1461 C 7920 1436 7935 1426 8000 1405 C 8123 1365 8160 1330 8160 1253 C 8160 1166 8087 1111 7973 1110 C 7910 1110 7834 1132 7784 1165 L 7760 1181 L 7781 1223 C 7793 1246 7803 1266 7804 1267 C 7805 1268 7832 1256 7864 1240 C 7960 1191 8058 1203 8023 1259 C 8018 1268 7980 1286 7939 1300 C 7842 1334 7823 1345 7805 1380 C 7762 1464 7811 1554 7915 1581 C 7956 1592 8045 1584 8102 1564 z M 8849 1574 C 8877 1566 8914 1547 8931 1532 L 8961 1505 L 8928 1466 L 8894 1428 L 8856 1454 C 8798 1493 8738 1490 8695 1447 C 8676 1428 8658 1401 8654 1387 C 8637 1316 8685 1238 8754 1225 C 8783 1219 8802 1223 8843 1244 L 8895 1270 L 8929 1235 C 8969 1196 8965 1186 8894 1144 C 8806 1093 8686 1103 8610 1167 C 8485 1274 8498 1465 8636 1546 C 8713 1591 8768 1599 8849 1574 z M 5100 1558 C 5154 1530 5180 1496 5187 1442 C 5194 1390 5169 1318 5133 1290 L 5108 1271 L 5140 1218 C 5158 1189 5179 1155 5188 1143 L 5202 1120 L 5131 1120 L 5060 1120 L 5028 1185 C 4996 1250 4996 1250 4953 1250 L 4910 1250 L 4910 1185 L 4910 1120 L 4845 1120 L 4780 1120 L 4780 1350 L 4780 1580 L 4918 1580 C 5041 1580 5060 1578 5100 1558 z M 5640 1530 L 5640 1480 L 5520 1480 L 5400 1480 L 5400 1440 L 5400 1400 L 5510 1400 L 5620 1400 L 5620 1350 L 5620 1300 L 5510 1300 L 5400 1300 L 5400 1260 L 5400 1220 L 5525 1220 L 5650 1220 L 5650 1170 L 5650 1120 L 5460 1120 L 5270 1120 L 5270 1350 L 5270 1580 L 5455 1580 L 5640 1580 L 5640 1530 z M 6090 1530 L 6090 1480 L 6025 1480 L 5960 1480 L 5960 1300 L 5960 1120 L 5895 1120 L 5830 1120 L 5830 1300 L 5830 1479 L 5763 1482 L 5695 1485 L 5692 1533 L 5689 1580 L 5889 1580 L 6090 1580 L 6090 1530 z M 6280 1350 L 6280 1120 L 6215 1120 L 6150 1120 L 6150 1350 L 6150 1580 L 6215 1580 L 6280 1580 L 6280 1350 z M 6700 1558 C 6754 1530 6780 1496 6787 1442 C 6794 1390 6769 1318 6733 1290 L 6708 1271 L 6740 1218 C 6758 1189 6779 1155 6788 1143 L 6802 1120 L 6731 1120 L 6660 1120 L 6628 1185 C 6596 1250 6596 1250 6553 1250 L 6510 1250 L 6510 1185 L 6510 1120 L 6445 1120 L 6380 1120 L 6380 1350 L 6380 1580 L 6518 1580 C 6641 1580 6660 1578 6700 1558 z M 7240 1530 L 7240 1480 L 7120 1480 L 7000 1480 L 7000 1440 L 7000 1400 L 7110 1400 L 7220 1400 L 7220 1350 L 7220 1300 L 7110 1300 L 7000 1300 L 7000 1260 L 7000 1220 L 7125 1220 L 7250 1220 L 7250 1170 L 7250 1120 L 7060 1120 L 6870 1120 L 6870 1350 L 6870 1580 L 7055 1580 L 7240 1580 L 7240 1530 z M 7700 1530 L 7700 1480 L 7580 1480 L 7460 1480 L 7460 1440 L 7460 1400 L 7570 1400 L 7680 1400 L 7680 1350 L 7680 1300 L 7570 1300 L 7460 1300 L 7460 1260 L 7460 1220 L 7585 1220 L 7710 1220 L 7710 1170 L 7710 1120 L 7520 1120 L 7330 1120 L 7330 1350 L 7330 1580 L 7515 1580 L 7700 1580 L 7700 1530 z M 9150 1400 L 9150 1220 L 9245 1220 L 9340 1220 L 9340 1170 L 9340 1120 L 9180 1120 L 9020 1120 L 9020 1350 L 9020 1580 L 9085 1580 L 9150 1580 L 9150 1400 z M 9530 1424 L 9530 1268 L 9559 1239 C 9591 1208 9620 1203 9660 1223 C 9698 1242 9709 1290 9709 1443 L 9710 1580 L 9770 1580 L 9830 1580 L 9830 1426 C 9830 1257 9822 1221 9777 1173 C 9711 1103 9573 1089 9490 1144 C 9420 1190 9410 1224 9410 1415 L 9410 1580 L 9470 1580 L 9530 1580 L 9530 1424 z M 10250 1558 C 10327 1519 10341 1438 10280 1386 C 10252 1363 10251 1361 10270 1355 C 10324 1338 10351 1234 10314 1181 C 10280 1133 10228 1120 10068 1120 L 9920 1120 L 9920 1350 L 9920 1580 L 10063 1580 C 10191 1580 10210 1578 10250 1558 z" stroke-linecap="round" />
</g>
		<g transform="matrix(0.13 0 0 -0.13 -416.3 155.44)"  >
<path style="stroke: none; stroke-width: 1; stroke-dasharray: none; stroke-linecap: butt; stroke-dashoffset: 0; stroke-linejoin: miter; stroke-miterlimit: 4; fill: rgb(255,255,255); fill-rule: nonzero; opacity: 1;" vector-effect="non-scaling-stroke"  transform=" translate(-4990, -1415)" d="M 4910 1415 L 4910 1350 L 4973 1350 C 5046 1350 5070 1367 5070 1417 C 5070 1463 5044 1480 4972 1480 L 4910 1480 L 4910 1415 z" stroke-linecap="round" />
</g>
		<g transform="matrix(0.13 0 0 -0.13 -202.97 155.44)"  >
<path style="stroke: none; stroke-width: 1; stroke-dasharray: none; stroke-linecap: butt; stroke-dashoffset: 0; stroke-linejoin: miter; stroke-miterlimit: 4; fill: rgb(255,255,255); fill-rule: nonzero; opacity: 1;" vector-effect="non-scaling-stroke"  transform=" translate(-6590, -1415)" d="M 6510 1415 L 6510 1350 L 6573 1350 C 6646 1350 6670 1367 6670 1417 C 6670 1463 6644 1480 6572 1480 L 6510 1480 L 6510 1415 z" stroke-linecap="round" />
</g>
		<g transform="matrix(0.13 0 0 -0.13 267.61 152.04)"  >
<path style="stroke: none; stroke-width: 1; stroke-dasharray: none; stroke-linecap: butt; stroke-dashoffset: 0; stroke-linejoin: miter; stroke-miterlimit: 4; fill: rgb(255,255,255); fill-rule: nonzero; opacity: 1;" vector-effect="non-scaling-stroke"  transform=" translate(-10119.29, -1440.5)" d="M 10050 1440 L 10050 1400 L 10103 1400 C 10166 1400 10193 1416 10188 1451 C 10185 1473 10181 1475 10118 1478 L 10050 1481 L 10050 1440 z" stroke-linecap="round" />
</g>
		<g transform="matrix(0.13 0 0 -0.13 268.96 175.44)"  >
<path style="stroke: none; stroke-width: 1; stroke-dasharray: none; stroke-linecap: butt; stroke-dashoffset: 0; stroke-linejoin: miter; stroke-miterlimit: 4; fill: rgb(255,255,255); fill-rule: nonzero; opacity: 1;" vector-effect="non-scaling-stroke"  transform=" translate(-10129.46, -1265)" d="M 10050 1265 L 10050 1220 L 10114 1220 C 10159 1220 10183 1225 10194 1236 C 10215 1256 10214 1266 10190 1290 C 10174 1306 10157 1310 10110 1310 L 10050 1310 L 10050 1265 z" stroke-linecap="round" />
</g>
		<g transform="matrix(0.13 0 0 -0.13 692.37 165.44)"  >
<path style="stroke: none; stroke-width: 1; stroke-dasharray: none; stroke-linecap: butt; stroke-dashoffset: 0; stroke-linejoin: miter; stroke-miterlimit: 4; fill: rgb(255,255,255); fill-rule: nonzero; opacity: 1;" vector-effect="non-scaling-stroke"  transform=" translate(-13305, -1340)" d="M 11299 1388 C 11177 1183 11065 994 11049 968 L 11020 920 L 13305 920 L 15590 920 L 15590 1340 L 15590 1760 L 13555 1760 L 11521 1760 L 11299 1388 z M 12138 1594 C 12136 1582 12107 1565 12050 1543 C 12003 1525 11962 1510 11958 1510 C 11953 1510 11950 1521 11950 1534 C 11950 1555 11961 1562 12038 1592 C 12125 1627 12145 1627 12138 1594 z M 14668 1594 C 14666 1582 14637 1565 14580 1543 C 14533 1525 14492 1510 14488 1510 C 14483 1510 14480 1521 14480 1534 C 14480 1555 14491 1562 14568 1592 C 14655 1627 14675 1627 14668 1594 z M 13110 1540 C 13110 1513 13107 1510 13080 1510 C 13053 1510 13050 1513 13050 1540 C 13050 1567 13053 1570 13080 1570 C 13107 1570 13110 1567 13110 1540 z M 15030 1540 C 15030 1513 15027 1510 15000 1510 C 14973 1510 14970 1513 14970 1540 C 14970 1567 14973 1570 15000 1570 C 15027 1570 15030 1567 15030 1540 z M 12164 1518 C 12171 1480 12169 1478 12108 1455 C 12081 1445 12060 1434 12060 1431 C 12060 1422 12170 1317 12200 1296 C 12213 1287 12244 1280 12267 1280 L 12310 1280 L 12310 1330 L 12310 1380 L 12349 1380 L 12389 1380 L 12392 1333 L 12395 1285 L 12440 1285 L 12485 1285 L 12488 1333 L 12491 1380 L 12531 1380 L 12570 1380 L 12570 1329 C 12570 1282 12572 1279 12593 1282 C 12612 1285 12615 1292 12618 1333 L 12621 1380 L 12661 1380 L 12700 1380 L 12700 1330 C 12700 1287 12703 1280 12720 1280 C 12737 1280 12740 1287 12740 1330 L 12740 1380 L 12780 1380 L 12820 1380 L 12820 1329 L 12820 1279 L 12868 1282 L 12915 1285 L 12918 1333 L 12921 1380 L 12961 1380 L 13000 1380 L 13000 1329 C 13000 1282 13002 1279 13023 1282 C 13042 1285 13045 1292 13048 1333 L 13051 1380 L 13091 1380 L 13130 1380 L 13130 1330 C 13130 1287 13133 1280 13150 1280 C 13167 1280 13170 1287 13170 1330 L 13170 1380 L 13210 1380 L 13250 1380 L 13250 1329 L 13250 1279 L 13303 1282 L 13355 1285 L 13358 1333 L 13361 1380 L 13401 1380 L 13440 1380 L 13440 1335 C 13440 1280 13419 1225 13392 1211 C 13367 1198 13241 1197 13220 1210 C 13211 1215 13201 1215 13193 1208 C 13186 1202 13162 1200 13138 1204 C 13085 1211 13085 1211 13034 1204 C 13011 1201 12983 1203 12972 1209 C 12958 1216 12949 1217 12945 1210 C 12937 1197 12810 1197 12790 1210 C 12781 1215 12771 1215 12763 1208 C 12756 1202 12732 1200 12708 1204 C 12655 1211 12655 1211 12604 1204 C 12581 1201 12553 1203 12542 1209 C 12528 1216 12519 1217 12515 1210 C 12512 1205 12478 1200 12440 1200 C 12402 1200 12368 1205 12365 1210 C 12361 1217 12353 1217 12340 1210 C 12330 1205 12292 1200 12257 1200 C 12208 1200 12186 1205 12169 1219 C 12146 1238 12145 1238 12121 1219 C 12101 1203 12080 1200 11975 1200 L 11852 1200 L 11826 1231 C 11801 1261 11800 1266 11800 1396 L 11800 1530 L 11840 1530 L 11879 1530 L 11882 1408 L 11885 1285 L 11978 1282 C 12049 1280 12070 1282 12070 1292 C 12070 1300 12043 1332 12010 1365 C 11960 1415 11950 1430 11952 1454 C 11955 1480 11963 1486 12040 1516 C 12148 1558 12156 1558 12164 1518 z M 14694 1518 C 14701 1480 14699 1478 14638 1455 C 14611 1445 14590 1434 14590 1430 C 14590 1415 14731 1290 14754 1284 C 14767 1281 14791 1280 14806 1282 C 14833 1285 14835 1288 14838 1333 L 14841 1380 L 14881 1380 L 14920 1380 L 14920 1329 C 14920 1282 14922 1279 14943 1282 C 14962 1285 14965 1292 14968 1333 L 14971 1380 L 15011 1380 L 15050 1380 L 15050 1330 C 15050 1287 15053 1280 15070 1280 C 15087 1280 15090 1287 15090 1330 L 15090 1380 L 15130 1380 L 15170 1380 L 15170 1319 C 15170 1265 15167 1255 15140 1228 C 15112 1201 15105 1199 15062 1204 C 15003 1211 15004 1211 14954 1204 C 14931 1201 14903 1203 14892 1209 C 14878 1216 14869 1217 14865 1210 C 14862 1205 14828 1200 14791 1200 C 14738 1200 14717 1204 14699 1219 C 14676 1238 14675 1238 14651 1219 C 14631 1203 14610 1200 14510 1200 L 14392 1200 L 14366 1231 C 14341 1261 14340 1266 14340 1396 L 14340 1530 L 14380 1530 L 14419 1530 L 14422 1408 L 14425 1285 L 14513 1282 C 14580 1280 14600 1282 14600 1292 C 14600 1300 14573 1332 14540 1365 C 14490 1415 14480 1430 14482 1454 C 14485 1480 14493 1486 14570 1516 C 14678 1558 14686 1558 14694 1518 z M 13732 1408 L 13735 1285 L 13780 1285 L 13825 1285 L 13828 1333 L 13831 1380 L 13871 1380 L 13910 1380 L 13910 1335 C 13910 1280 13889 1225 13862 1211 C 13850 1205 13810 1200 13772 1200 C 13706 1200 13700 1202 13676 1231 C 13651 1261 13650 1266 13650 1396 L 13650 1530 L 13690 1530 L 13729 1530 L 13732 1408 z M 15312 1408 L 15315 1285 L 15360 1285 L 15405 1285 L 15408 1333 L 15411 1380 L 15451 1380 L 15490 1380 L 15490 1335 C 15490 1280 15469 1225 15442 1211 C 15430 1205 15390 1200 15352 1200 C 15286 1200 15280 1202 15256 1231 C 15231 1261 15230 1266 15230 1396 L 15230 1530 L 15270 1530 L 15309 1530 L 15312 1408 z M 12390 1460 L 12390 1430 L 12320 1430 L 12250 1430 L 12250 1460 L 12250 1490 L 12320 1490 L 12390 1490 L 12390 1460 z M 13150 1460 L 13150 1430 L 13080 1430 L 13010 1430 L 13010 1460 L 13010 1490 L 13080 1490 L 13150 1490 L 13150 1460 z M 13420 1460 C 13420 1432 13418 1430 13380 1430 C 13342 1430 13340 1432 13340 1460 C 13340 1488 13342 1490 13380 1490 C 13418 1490 13420 1488 13420 1460 z M 13590 1460 C 13590 1432 13588 1430 13550 1430 C 13512 1430 13510 1432 13510 1460 C 13510 1488 13512 1490 13550 1490 C 13588 1490 13590 1488 13590 1460 z M 15070 1460 L 15070 1430 L 15000 1430 L 14930 1430 L 14930 1460 L 14930 1490 L 15000 1490 L 15070 1490 L 15070 1460 z M 14206 1438 C 14267 1374 14280 1350 14280 1302 C 14280 1239 14240 1200 14175 1200 C 14080 1200 14039 1291 14096 1376 C 14112 1399 14118 1416 14111 1418 C 14098 1422 14139 1479 14155 1479 C 14161 1480 14184 1461 14206 1438 z M 11620 1410 C 11620 1382 11618 1380 11580 1380 C 11542 1380 11540 1382 11540 1410 C 11540 1438 11542 1440 11580 1440 C 11618 1440 11620 1438 11620 1410 z M 11748 1276 C 11743 1161 11732 1133 11677 1099 C 11651 1083 11632 1080 11577 1082 C 11517 1085 11506 1089 11477 1118 C 11446 1149 11445 1154 11442 1240 L 11438 1330 L 11479 1330 L 11520 1330 L 11520 1261 C 11520 1178 11533 1160 11591 1160 C 11656 1160 11670 1183 11670 1290 L 11670 1380 L 11711 1380 L 11753 1380 L 11748 1276 z M 13590 1285 C 13590 1224 13585 1177 13576 1155 C 13556 1109 13507 1080 13449 1080 L 13402 1080 L 13398 1120 L 13394 1160 L 13434 1160 C 13499 1160 13510 1178 13510 1287 L 13510 1380 L 13550 1380 L 13590 1380 L 13590 1285 z M 13840 1120 C 13840 1092 13838 1090 13800 1090 C 13762 1090 13760 1092 13760 1120 C 13760 1148 13762 1150 13800 1150 C 13838 1150 13840 1148 13840 1120 z M 15420 1120 C 15420 1092 15418 1090 15380 1090 C 15342 1090 15340 1092 15340 1120 C 15340 1148 15342 1150 15380 1150 C 15418 1150 15420 1148 15420 1120 z" stroke-linecap="round" />
</g>
		<g transform="matrix(0.13 0 0 -0.13 808.58 168.21)"  >
<path style="stroke: none; stroke-width: 1; stroke-dasharray: none; stroke-linecap: butt; stroke-dashoffset: 0; stroke-linejoin: miter; stroke-miterlimit: 4; fill: rgb(255,255,255); fill-rule: nonzero; opacity: 1;" vector-effect="non-scaling-stroke"  transform=" translate(-14176.61, -1319.23)" d="M 14157 1333 C 14149 1317 14145 1299 14147 1293 C 14153 1275 14185 1277 14200 1295 C 14210 1307 14209 1315 14196 1335 C 14175 1366 14174 1366 14157 1333 z" stroke-linecap="round" />
</g>
</g>
</g>
</svg>